<svg fill="#03506f" xmlns="http://www.w3.org/2000/svg"  viewBox="0 0 50 50" width="50px" height="50px"><path d="M 25 2 C 24.875 2 24.753906 2.027344 24.640625 2.070313 C 18.554688 2.265625 13.558594 7 13.050781 13 L 13 13 C 12.640625 12.996094 12.304688 13.183594 12.121094 13.496094 C 11.941406 13.808594 11.941406 14.191406 12.121094 14.503906 C 12.304688 14.816406 12.640625 15.003906 13 15 L 13 24.996094 C 12.832031 24.996094 12.667969 25.039063 12.519531 25.125 C 12.492188 25.136719 12.464844 25.15625 12.4375 25.171875 C 12.433594 25.175781 12.429688 25.175781 12.425781 25.179688 C 12.421875 25.183594 12.414063 25.191406 12.40625 25.195313 C 12.417969 25.1875 12.386719 25.210938 12.386719 25.214844 C 12.371094 25.222656 12.359375 25.230469 12.347656 25.238281 C 12.328125 25.257813 12.332031 25.253906 12.3125 25.265625 C 12.269531 25.304688 12.21875 25.351563 12.15625 25.414063 C 12.035156 25.535156 11.882813 25.707031 11.714844 25.941406 C 11.371094 26.414063 10.953125 27.136719 10.550781 28.222656 C 9.808594 30.238281 9.113281 33.527344 9.019531 38.796875 C 9 38.890625 8.996094 38.988281 9.003906 39.085938 C 9.003906 39.085938 9.011719 39.136719 9.015625 39.140625 C 9.011719 39.394531 9.003906 39.628906 9 39.890625 C 9 39.9375 8.996094 39.984375 9 40.03125 C 8.992188 40.164063 8.941406 41.023438 9.035156 42.117188 C 9.136719 43.296875 9.289063 44.703125 10.292969 45.707031 C 10.539063 45.960938 10.898438 46.070313 11.242188 45.988281 C 11.589844 45.90625 11.863281 45.648438 11.96875 45.3125 C 12.070313 45.429688 12.148438 45.546875 12.253906 45.667969 C 12.621094 46.078125 13.253906 46.113281 13.667969 45.746094 C 14.078125 45.378906 14.113281 44.746094 13.746094 44.332031 C 13.632813 44.207031 13.550781 44.085938 13.449219 43.964844 C 13.757813 43.992188 14.015625 44 14.015625 44 C 14.570313 43.992188 15.011719 43.535156 15 42.980469 C 14.992188 42.429688 14.535156 41.988281 13.984375 42 C 13.984375 42 13.304688 42.003906 12.578125 41.71875 C 12.246094 41.589844 11.9375 41.414063 11.671875 41.167969 C 11.144531 39.980469 11.035156 39.214844 11.015625 39.035156 C 11.09375 33.808594 11.777344 30.679688 12.429688 28.917969 C 12.636719 28.355469 12.828125 27.988281 13 27.6875 L 13 35.824219 C 12.980469 35.953125 12.984375 36.085938 13.011719 36.210938 C 13.117188 39.714844 15.832031 42.59375 19.265625 42.957031 L 20.050781 45.316406 C 20.1875 45.726563 20.570313 46 21 46 L 23 46 C 23.429688 46 23.8125 45.726563 23.949219 45.316406 L 24.71875 43 L 25.28125 43 L 26.050781 45.316406 C 26.1875 45.726563 26.570313 46 27 46 L 29 46 C 29.429688 46 29.8125 45.726563 29.949219 45.316406 L 30.734375 42.957031 C 34.171875 42.59375 36.882813 39.710938 36.988281 36.207031 C 37.019531 36.082031 37.023438 35.949219 37 35.820313 L 37 27.660156 C 37.175781 27.976563 37.367188 28.363281 37.570313 28.917969 C 38.222656 30.679688 38.90625 33.808594 38.984375 39.035156 C 38.964844 39.214844 38.855469 39.980469 38.328125 41.167969 C 38.0625 41.414063 37.753906 41.589844 37.421875 41.71875 C 36.695313 42.003906 36.015625 42 36.015625 42 C 35.464844 41.992188 35.011719 42.429688 35 42.984375 C 34.992188 43.535156 35.429688 43.988281 35.984375 44 C 35.984375 44 36.242188 43.992188 36.550781 43.964844 C 36.449219 44.085938 36.367188 44.207031 36.253906 44.332031 C 35.886719 44.746094 35.921875 45.378906 36.332031 45.746094 C 36.746094 46.113281 37.378906 46.078125 37.746094 45.667969 C 37.851563 45.546875 37.929688 45.429688 38.03125 45.3125 C 38.136719 45.648438 38.410156 45.90625 38.757813 45.988281 C 39.101563 46.070313 39.460938 45.960938 39.707031 45.707031 C 40.710938 44.703125 40.863281 43.296875 40.964844 42.117188 C 41.058594 41.023438 41.011719 40.15625 41 40.027344 C 41.003906 39.976563 41.003906 39.929688 41 39.878906 C 40.996094 39.625 40.988281 39.390625 40.984375 39.140625 C 40.988281 39.136719 40.996094 39.085938 40.996094 39.085938 C 41.007813 38.984375 41 38.886719 40.980469 38.785156 C 40.886719 33.523438 40.191406 30.238281 39.449219 28.222656 C 39.046875 27.136719 38.628906 26.414063 38.285156 25.941406 C 38.117188 25.707031 37.964844 25.535156 37.84375 25.414063 C 37.820313 25.390625 37.804688 25.378906 37.785156 25.359375 C 37.785156 25.359375 37.78125 25.355469 37.78125 25.355469 C 37.621094 25.160156 37.390625 25.035156 37.140625 25 C 37.121094 25 37.105469 24.996094 37.089844 24.996094 C 37.082031 24.996094 37.078125 24.996094 37.070313 24.996094 C 37.046875 24.992188 37.023438 24.992188 37 24.992188 L 37 15 C 37.359375 15.003906 37.695313 14.816406 37.878906 14.503906 C 38.058594 14.191406 38.058594 13.808594 37.878906 13.496094 C 37.695313 13.183594 37.359375 12.996094 37 13 L 36.949219 13 C 36.433594 6.867188 31.257813 2 25 2 Z M 28 46 C 26.894531 46 26 46.894531 26 48 L 30 48 C 30 46.894531 29.105469 46 28 46 Z M 22 46 C 20.894531 46 20 46.894531 20 48 L 24 48 C 24 46.894531 23.105469 46 22 46 Z M 25 4 C 30.167969 4 34.445313 7.960938 34.949219 13 L 30.90625 13 C 30.429688 10.171875 27.960938 8 25 8 C 22.039063 8 19.570313 10.171875 19.09375 13 L 15.050781 13 C 15.554688 7.960938 19.832031 4 25 4 Z M 25 10 C 27.191406 10 28.941406 11.730469 28.988281 13.910156 C 28.984375 13.96875 28.984375 14.03125 28.988281 14.09375 C 28.941406 16.269531 27.1875 18 25 18 C 22.808594 18 21.058594 16.269531 21.011719 14.089844 C 21.015625 14.03125 21.015625 13.96875 21.011719 13.90625 C 21.058594 11.730469 22.8125 10 25 10 Z M 24.5 13 C 23.671875 13 23 13.671875 23 14.5 C 23 15.328125 23.671875 16 24.5 16 C 25.328125 16 26 15.328125 26 14.5 C 26 13.671875 25.328125 13 24.5 13 Z M 15 15 L 19.09375 15 C 19.570313 17.828125 22.039063 20 25 20 C 27.960938 20 30.429688 17.828125 30.90625 15 L 35 15 L 35 26.316406 L 31.648438 29 L 18.351563 29 L 15 26.316406 Z M 20.980469 22.988281 C 20.550781 22.992188 20.175781 23.265625 20.039063 23.671875 C 19.902344 24.074219 20.039063 24.519531 20.375 24.78125 C 20.375 24.78125 20.847656 25.140625 21.613281 25.433594 C 22.378906 25.726563 23.503906 26 25 26 C 26.496094 26 27.621094 25.726563 28.386719 25.433594 C 29.152344 25.140625 29.625 24.78125 29.625 24.78125 C 30.058594 24.4375 30.125 23.804688 29.78125 23.375 C 29.4375 22.941406 28.804688 22.875 28.375 23.21875 C 28.375 23.21875 28.222656 23.359375 27.675781 23.566406 C 27.128906 23.773438 26.253906 24 25 24 C 23.746094 24 22.871094 23.773438 22.324219 23.566406 C 21.777344 23.359375 21.625 23.21875 21.625 23.21875 C 21.441406 23.070313 21.214844 22.988281 20.980469 22.988281 Z M 15 28.878906 L 17 30.480469 L 17 35.933594 C 16.789063 35.917969 16.78125 35.933594 16.527344 35.902344 C 15.957031 35.820313 15.359375 35.632813 15 35.46875 Z M 35 28.878906 L 35 35.46875 C 34.640625 35.632813 34.042969 35.820313 33.472656 35.902344 C 33.21875 35.933594 33.210938 35.917969 33 35.933594 L 33 30.480469 Z M 19 31 L 31 31 L 31 37 C 31 37.546875 31.4375 37.992188 31.984375 38 C 31.984375 38 32.792969 38.011719 33.746094 37.878906 C 34.042969 37.839844 34.355469 37.785156 34.675781 37.71875 C 33.972656 39.625 32.148438 41 30 41 C 29.996094 41 29.996094 41 29.992188 41 L 26.15625 41 C 26.09375 40.988281 26.027344 40.984375 25.957031 40.984375 C 25.914063 40.988281 25.871094 40.992188 25.828125 41 L 20.15625 41 C 20.09375 40.988281 20.027344 40.984375 19.957031 40.984375 C 19.9375 40.988281 19.914063 40.988281 19.890625 40.992188 C 17.792969 40.945313 16.015625 39.59375 15.324219 37.71875 C 15.644531 37.785156 15.957031 37.839844 16.253906 37.878906 C 17.207031 38.011719 18.015625 38 18.015625 38 C 18.5625 37.992188 19 37.546875 19 37 Z M 21.386719 43 L 22.613281 43 L 22.28125 44 L 21.71875 44 Z M 27.386719 43 L 28.613281 43 L 28.28125 44 L 27.71875 44 Z"/></svg>